<mxfile host="app.diagrams.net" modified="2023-11-10T11:58:06.177Z" agent="Mozilla/5.0 (Windows NT 10.0; Win64; x64) AppleWebKit/537.36 (KHTML, like Gecko) Chrome/119.0.0.0 Safari/537.36" etag="jq_4NFNw2MwiehVsHXoS" version="22.1.0" type="device">
  <diagram name="Strona-1" id="zKjyiv4BYN11AsZB3FA-">
    <mxGraphModel dx="1434" dy="758" grid="1" gridSize="10" guides="1" tooltips="1" connect="1" arrows="1" fold="1" page="1" pageScale="1" pageWidth="827" pageHeight="1169" math="0" shadow="0">
      <root>
        <mxCell id="0" />
        <mxCell id="1" parent="0" />
        <mxCell id="93lsOhG8V5Jmbv-SX-cU-1" value="" style="shape=actor;whiteSpace=wrap;html=1;" vertex="1" parent="1">
          <mxGeometry x="170" y="230" width="70" height="90" as="geometry" />
        </mxCell>
        <mxCell id="93lsOhG8V5Jmbv-SX-cU-5" value="" style="shape=actor;whiteSpace=wrap;html=1;" vertex="1" parent="1">
          <mxGeometry x="340" y="80" width="70" height="90" as="geometry" />
        </mxCell>
        <mxCell id="93lsOhG8V5Jmbv-SX-cU-6" value="&lt;font style=&quot;font-size: 18px;&quot;&gt;Mobilna aplikacja&lt;/font&gt;" style="shape=ext;double=1;rounded=1;whiteSpace=wrap;html=1;" vertex="1" parent="1">
          <mxGeometry x="320" y="250" width="120" height="80" as="geometry" />
        </mxCell>
        <mxCell id="93lsOhG8V5Jmbv-SX-cU-7" value="Punktowi" style="text;strokeColor=none;fillColor=none;html=1;fontSize=24;fontStyle=1;verticalAlign=middle;align=center;" vertex="1" parent="1">
          <mxGeometry x="155" y="180" width="100" height="40" as="geometry" />
        </mxCell>
        <mxCell id="93lsOhG8V5Jmbv-SX-cU-8" value="Organizatorzy" style="text;strokeColor=none;fillColor=none;html=1;fontSize=24;fontStyle=1;verticalAlign=middle;align=center;" vertex="1" parent="1">
          <mxGeometry x="330" y="40" width="100" height="40" as="geometry" />
        </mxCell>
        <mxCell id="93lsOhG8V5Jmbv-SX-cU-9" value="Uczestnicy" style="text;strokeColor=none;fillColor=none;html=1;fontSize=24;fontStyle=1;verticalAlign=middle;align=center;" vertex="1" parent="1">
          <mxGeometry x="505" y="180" width="100" height="40" as="geometry" />
        </mxCell>
        <mxCell id="93lsOhG8V5Jmbv-SX-cU-10" value="&lt;font style=&quot;font-size: 18px;&quot;&gt;Serwer z bazą danych&lt;/font&gt;" style="shape=ext;double=1;rounded=1;whiteSpace=wrap;html=1;" vertex="1" parent="1">
          <mxGeometry x="320" y="400" width="120" height="80" as="geometry" />
        </mxCell>
        <mxCell id="93lsOhG8V5Jmbv-SX-cU-15" value="" style="edgeStyle=segmentEdgeStyle;endArrow=classic;html=1;curved=0;rounded=0;endSize=8;startSize=8;entryX=0.333;entryY=1;entryDx=0;entryDy=0;entryPerimeter=0;exitX=0.317;exitY=-0.037;exitDx=0;exitDy=0;exitPerimeter=0;" edge="1" parent="1" source="93lsOhG8V5Jmbv-SX-cU-10" target="93lsOhG8V5Jmbv-SX-cU-6">
          <mxGeometry width="50" height="50" relative="1" as="geometry">
            <mxPoint x="330" y="440" as="sourcePoint" />
            <mxPoint x="380" y="390" as="targetPoint" />
          </mxGeometry>
        </mxCell>
        <mxCell id="93lsOhG8V5Jmbv-SX-cU-16" value="" style="edgeStyle=segmentEdgeStyle;endArrow=classic;html=1;curved=0;rounded=0;endSize=8;startSize=8;entryX=0.667;entryY=-0.037;entryDx=0;entryDy=0;entryPerimeter=0;exitX=0.667;exitY=1.038;exitDx=0;exitDy=0;exitPerimeter=0;" edge="1" parent="1" source="93lsOhG8V5Jmbv-SX-cU-6" target="93lsOhG8V5Jmbv-SX-cU-10">
          <mxGeometry width="50" height="50" relative="1" as="geometry">
            <mxPoint x="350" y="430" as="sourcePoint" />
            <mxPoint x="400" y="380" as="targetPoint" />
          </mxGeometry>
        </mxCell>
        <mxCell id="93lsOhG8V5Jmbv-SX-cU-23" value="" style="endArrow=classic;startArrow=classic;html=1;rounded=0;entryX=-0.017;entryY=0.375;entryDx=0;entryDy=0;entryPerimeter=0;" edge="1" parent="1" target="93lsOhG8V5Jmbv-SX-cU-6">
          <mxGeometry width="50" height="50" relative="1" as="geometry">
            <mxPoint x="240" y="280.5" as="sourcePoint" />
            <mxPoint x="310" y="280" as="targetPoint" />
          </mxGeometry>
        </mxCell>
        <mxCell id="93lsOhG8V5Jmbv-SX-cU-27" value="" style="endArrow=classic;startArrow=classic;html=1;rounded=0;entryX=0.5;entryY=1;entryDx=0;entryDy=0;exitX=0.45;exitY=-0.025;exitDx=0;exitDy=0;exitPerimeter=0;" edge="1" parent="1" source="93lsOhG8V5Jmbv-SX-cU-6" target="93lsOhG8V5Jmbv-SX-cU-5">
          <mxGeometry width="50" height="50" relative="1" as="geometry">
            <mxPoint x="360" y="250" as="sourcePoint" />
            <mxPoint x="410" y="200" as="targetPoint" />
            <Array as="points">
              <mxPoint x="375" y="210" />
            </Array>
          </mxGeometry>
        </mxCell>
        <mxCell id="93lsOhG8V5Jmbv-SX-cU-28" value="" style="endArrow=classic;startArrow=classic;html=1;rounded=0;entryX=0;entryY=0.556;entryDx=0;entryDy=0;entryPerimeter=0;exitX=1;exitY=0.375;exitDx=0;exitDy=0;exitPerimeter=0;" edge="1" parent="1" source="93lsOhG8V5Jmbv-SX-cU-6" target="93lsOhG8V5Jmbv-SX-cU-4">
          <mxGeometry width="50" height="50" relative="1" as="geometry">
            <mxPoint x="443" y="290.49999999999994" as="sourcePoint" />
            <mxPoint x="590" y="289.49999999999994" as="targetPoint" />
            <Array as="points" />
          </mxGeometry>
        </mxCell>
        <mxCell id="93lsOhG8V5Jmbv-SX-cU-4" value="" style="shape=actor;whiteSpace=wrap;html=1;" vertex="1" parent="1">
          <mxGeometry x="520" y="230" width="70" height="90" as="geometry" />
        </mxCell>
        <mxCell id="93lsOhG8V5Jmbv-SX-cU-29" value="&lt;font style=&quot;font-size: 45px;&quot;&gt;Context&lt;br&gt;Diagram&lt;br&gt;&lt;/font&gt;" style="text;strokeColor=none;fillColor=none;html=1;fontSize=24;fontStyle=1;verticalAlign=middle;align=center;strokeWidth=2;" vertex="1" parent="1">
          <mxGeometry x="560" y="80" width="100" height="40" as="geometry" />
        </mxCell>
        <mxCell id="93lsOhG8V5Jmbv-SX-cU-30" value="Organizacja eventu, przyjmowanie zgłoszeń" style="text;html=1;strokeColor=none;fillColor=none;align=center;verticalAlign=middle;whiteSpace=wrap;rounded=0;" vertex="1" parent="1">
          <mxGeometry x="384" y="190" width="96" height="30" as="geometry" />
        </mxCell>
        <mxCell id="93lsOhG8V5Jmbv-SX-cU-31" value="Zgłoszenia do zawodów, trasa wyścigu, raportowanie przebiegu" style="text;html=1;strokeColor=none;fillColor=none;align=center;verticalAlign=middle;whiteSpace=wrap;rounded=0;" vertex="1" parent="1">
          <mxGeometry x="450" y="320" width="60" height="30" as="geometry" />
        </mxCell>
        <mxCell id="93lsOhG8V5Jmbv-SX-cU-32" value="Kontrola wyścigu na danym etapie" style="text;html=1;strokeColor=none;fillColor=none;align=center;verticalAlign=middle;whiteSpace=wrap;rounded=0;" vertex="1" parent="1">
          <mxGeometry x="250" y="310" width="60" height="30" as="geometry" />
        </mxCell>
        <mxCell id="93lsOhG8V5Jmbv-SX-cU-33" value="transfer danych" style="text;html=1;strokeColor=none;fillColor=none;align=center;verticalAlign=middle;whiteSpace=wrap;rounded=0;" vertex="1" parent="1">
          <mxGeometry x="350" y="350" width="60" height="30" as="geometry" />
        </mxCell>
      </root>
    </mxGraphModel>
  </diagram>
</mxfile>
